<svg id="visual" viewBox="0 0 350 50" width="350" height="50" xmlns="http://www.w3.org/2000/svg" xmlns:xlink="http://www.w3.org/1999/xlink" version="1.1"><rect x="0" y="0" width="350" height="50" fill="#ffffff"></rect><path d="M0 20L9.7 18.5C19.3 17 38.7 14 58.2 14.5C77.7 15 97.3 19 116.8 18.3C136.3 17.7 155.7 12.3 175 11.7C194.3 11 213.7 15 233.2 16.3C252.7 17.7 272.3 16.3 291.8 16.5C311.3 16.7 330.7 18.3 340.3 19.2L350 20L350 51L340.3 51C330.7 51 311.3 51 291.8 51C272.3 51 252.7 51 233.2 51C213.7 51 194.3 51 175 51C155.7 51 136.3 51 116.8 51C97.3 51 77.7 51 58.2 51C38.7 51 19.3 51 9.7 51L0 51Z" fill="#7474bf"></path><path d="M0 24L9.7 24.7C19.3 25.3 38.7 26.7 58.2 27C77.7 27.3 97.3 26.7 116.8 26.7C136.3 26.7 155.7 27.3 175 26.8C194.3 26.3 213.7 24.7 233.2 24.2C252.7 23.7 272.3 24.3 291.8 23.2C311.3 22 330.7 19 340.3 17.5L350 16L350 51L340.3 51C330.7 51 311.3 51 291.8 51C272.3 51 252.7 51 233.2 51C213.7 51 194.3 51 175 51C155.7 51 136.3 51 116.8 51C97.3 51 77.7 51 58.2 51C38.7 51 19.3 51 9.7 51L0 51Z" fill="#606fb9"></path><path d="M0 29L9.7 29.3C19.3 29.7 38.7 30.3 58.2 30.7C77.7 31 97.3 31 116.8 31.5C136.3 32 155.7 33 175 33.3C194.3 33.7 213.7 33.3 233.2 31.3C252.7 29.3 272.3 25.7 291.8 25.8C311.3 26 330.7 30 340.3 32L350 34L350 51L340.3 51C330.7 51 311.3 51 291.8 51C272.3 51 252.7 51 233.2 51C213.7 51 194.3 51 175 51C155.7 51 136.3 51 116.8 51C97.3 51 77.7 51 58.2 51C38.7 51 19.3 51 9.7 51L0 51Z" fill="#4b6ab3"></path><path d="M0 35L9.7 35.2C19.3 35.3 38.7 35.7 58.2 35.8C77.7 36 97.3 36 116.8 36C136.3 36 155.7 36 175 36.5C194.3 37 213.7 38 233.2 38.2C252.7 38.3 272.3 37.7 291.8 37C311.3 36.3 330.7 35.7 340.3 35.3L350 35L350 51L340.3 51C330.7 51 311.3 51 291.8 51C272.3 51 252.7 51 233.2 51C213.7 51 194.3 51 175 51C155.7 51 136.3 51 116.8 51C97.3 51 77.7 51 58.2 51C38.7 51 19.3 51 9.7 51L0 51Z" fill="#3165ac"></path><path d="M0 44L9.7 43.5C19.3 43 38.7 42 58.2 42C77.7 42 97.3 43 116.8 42.3C136.3 41.7 155.7 39.3 175 39.5C194.3 39.7 213.7 42.3 233.2 43.7C252.7 45 272.3 45 291.8 43.7C311.3 42.3 330.7 39.7 340.3 38.3L350 37L350 51L340.3 51C330.7 51 311.3 51 291.8 51C272.3 51 252.7 51 233.2 51C213.7 51 194.3 51 175 51C155.7 51 136.3 51 116.8 51C97.3 51 77.7 51 58.2 51C38.7 51 19.3 51 9.7 51L0 51Z" fill="#0060a4"></path></svg>